<svg xmlns="http://www.w3.org/2000/svg" width="1000" height="1000" viewBox="0 0 375 375">
  <defs>
    <clipPath id="clip-github">
      <path d="M 43.5 37 L 337.5 37 L 337.5 332 L 43.5 332 Z M 43.5 37 " />
    </clipPath>
  </defs>
  <g clip-path="url(#clip-github)">
    <path fill="#ffffff" d="M 190.5 37.375 C 109.3125 37.375 43.5 103.1875 43.5 184.371094 C 43.5 265.558594 109.3125 331.371094 190.5 331.371094 C 271.6875 331.371094 337.5 265.558594 337.5 184.371094 C 337.5 103.1875 271.6875 37.375 190.5 37.375 Z M 68 184.371094 C 68 116.71875 122.84375 61.875 190.5 61.875 C 258.15625 61.875 313 116.71875 313 184.371094 C 313 239.503906 276.582031 286.125 226.492188 301.5 C 227.859375 276.742188 227.390625 261.40625 225.082031 255.492188 C 222.648438 249.25 220.664062 246.691406 219.472656 245.15625 C 218.691406 244.152344 218.253906 243.585938 218.253906 242.714844 C 218.253906 241.242188 219.289062 240.179688 221.359375 239.519531 C 239.40625 235.527344 251.511719 224.433594 257.667969 206.242188 C 266.199219 181.03125 254.023438 162.699219 249.09375 155.28125 C 248.6875 154.667969 248.332031 154.128906 248.039062 153.667969 C 244.207031 147.621094 249.226562 132.902344 255.21875 121.121094 C 234.835938 117.035156 227.054688 126.503906 222.589844 131.9375 C 220.765625 134.152344 219.496094 135.699219 218.148438 135.371094 C 216.945312 135.078125 215.648438 134.507812 214.09375 133.824219 C 209.644531 131.867188 203.078125 128.984375 190.5 128.984375 C 174.902344 128.984375 164.566406 134.433594 162.984375 135.265625 C 162.84375 135.339844 162.773438 135.371094 162.773438 135.371094 C 154.574219 123.941406 142.929688 119.191406 127.839844 121.121094 C 131.996094 137.730469 132.308594 148.578125 128.777344 153.667969 C 123.480469 161.304688 113.550781 179.066406 121.257812 206.242188 C 128.964844 233.414062 157.027344 239.519531 162.371094 239.519531 L 162.40625 239.523438 C 162.828125 239.617188 166.761719 240.464844 165.582031 243.785156 C 165.347656 244.671875 165.195312 245.871094 165.019531 247.226562 C 164.464844 251.578125 163.707031 257.492188 159.535156 259.414062 C 154.0625 261.933594 141.992188 263.3125 136.941406 260.164062 C 135.261719 259.113281 134.050781 256.921875 132.597656 254.28125 C 129.683594 248.996094 125.78125 241.910156 115.105469 238.617188 C 99.101562 233.675781 100.105469 240.207031 104.097656 241.8125 C 104.980469 242.164062 106.144531 242.496094 107.476562 242.871094 C 112.1875 244.207031 118.96875 246.128906 122.445312 251.71875 C 123.464844 253.359375 124.511719 255.15625 125.582031 256.988281 C 129.199219 263.183594 133.070312 269.820312 136.941406 272.367188 C 140.289062 274.566406 148.304688 275.445312 160.996094 275.007812 C 160.445312 286.988281 160.148438 296.34375 160.113281 303.074219 C 107.15625 289.558594 68 241.539062 68 184.371094 Z M 68 184.371094 " />
  </g>
  <g fill="#000000">
    <g transform="translate(360.804648, 371.349967)">
      <path d="M 1.5 0 L 1.5 -12.078125 L 2.78125 -12.078125 L 2.78125 -7.390625 L 2.9375 -7.359375 C 3.550781 -8.304688 4.441406 -8.78125 5.609375 -8.78125 C 6.640625 -8.78125 7.390625 -8.515625 7.859375 -7.984375 C 8.328125 -7.460938 8.5625 -6.648438 8.5625 -5.546875 L 8.5625 0 L 7.28125 0 L 7.28125 -5.515625 C 7.28125 -6.035156 7.210938 -6.453125 7.078125 -6.765625 C 6.953125 -7.085938 6.75 -7.316406 6.46875 -7.453125 C 6.1875 -7.597656 5.820312 -7.671875 5.375 -7.671875 C 4.59375 -7.671875 3.960938 -7.414062 3.484375 -6.90625 C 3.015625 -6.40625 2.78125 -5.578125 2.78125 -4.421875 L 2.78125 0 Z M 1.5 0 " />
    </g>
  </g>
  <g fill="#000000">
    <g transform="translate(370.7241, 371.349967)">
      <path d="M 2.140625 -10.28125 C 1.867188 -10.28125 1.648438 -10.363281 1.484375 -10.53125 C 1.316406 -10.707031 1.234375 -10.925781 1.234375 -11.1875 C 1.234375 -11.445312 1.316406 -11.660156 1.484375 -11.828125 C 1.648438 -11.992188 1.867188 -12.078125 2.140625 -12.078125 C 2.410156 -12.078125 2.628906 -11.992188 2.796875 -11.828125 C 2.972656 -11.660156 3.0625 -11.445312 3.0625 -11.1875 C 3.0625 -10.925781 2.972656 -10.707031 2.796875 -10.53125 C 2.628906 -10.363281 2.410156 -10.28125 2.140625 -10.28125 Z M 2.140625 -11.234375 C 2.011719 -11.234375 1.890625 -11.277344 1.796875 -11.367188 C 1.707031 -11.460938 1.664062 -11.59375 1.664062 -11.757812 C 1.664062 -11.914062 1.707031 -12.035156 1.796875 -12.121094 C 1.890625 -12.207031 2.011719 -12.242188 2.140625 -12.242188 C 2.273438 -12.242188 2.398438 -12.207031 2.492188 -12.121094 C 2.582031 -12.035156 2.625 -11.914062 2.625 -11.757812 C 2.625 -11.59375 2.582031 -11.460938 2.492188 -11.367188 C 2.398438 -11.277344 2.273438 -11.234375 2.140625 -11.234375 " />
    </g>
  </g>
  <g fill="#000000">
    <g transform="translate(380.804648, 371.349967)">
      <path d="M 1.5 0 L 1.5 -8.625 L 2.78125 -8.625 L 2.78125 0 Z M 1.5 0 " />
    </g>
  </g>
</svg>
