<svg xmlns="http://www.w3.org/2000/svg" xmlns:xlink="http://www.w3.org/1999/xlink" width="500" height="500" viewBox="0 0 500 500">
  <!-- Background rectangles removed -->
  <g fill="#ffffff" fill-opacity="1">
    <g transform="translate(16.169297, 218.330494)">
      <g>
        <path d="M 13.4375 -16.03125 L 13.4375 0 L 4.0625 0 L 4.0625 -45.5 L 21.8125 -45.5 C 25.226562 -45.5 28.234375 -44.875 30.828125 -43.625 C 33.421875 -42.375 35.414062 -40.597656 36.8125 -38.296875 C 38.207031 -35.992188 38.90625 -33.375 38.90625 -30.4375 C 38.90625 -25.976562 37.378906 -22.460938 34.328125 -19.890625 C 31.273438 -17.316406 27.050781 -16.03125 21.65625 -16.03125 Z M 13.4375 -23.625 L 21.8125 -23.625 C 24.289062 -23.625 26.179688 -24.207031 27.484375 -25.375 C 28.785156 -26.539062 29.4375 -28.207031 29.4375 -30.375 C 29.4375 -32.601562 28.78125 -34.40625 27.46875 -35.78125 C 26.15625 -37.15625 24.34375 -37.863281 22.03125 -37.90625 L 13.4375 -37.90625 Z M 13.4375 -23.625 "/>
      </g>
    </g>
    <g transform="translate(57.44803, 218.330494)">
      <g>
        <path d="M 41.4375 -21.71875 C 41.4375 -17.238281 40.644531 -13.3125 39.0625 -9.9375 C 37.476562 -6.5625 35.210938 -3.957031 32.265625 -2.125 C 29.316406 -0.289062 25.9375 0.625 22.125 0.625 C 18.351562 0.625 14.988281 -0.28125 12.03125 -2.09375 C 9.070312 -3.90625 6.78125 -6.492188 5.15625 -9.859375 C 3.53125 -13.222656 2.707031 -17.09375 2.6875 -21.46875 L 2.6875 -23.71875 C 2.6875 -28.195312 3.492188 -32.140625 5.109375 -35.546875 C 6.722656 -38.953125 9.003906 -41.566406 11.953125 -43.390625 C 14.898438 -45.210938 18.269531 -46.125 22.0625 -46.125 C 25.851562 -46.125 29.222656 -45.210938 32.171875 -43.390625 C 35.117188 -41.566406 37.398438 -38.953125 39.015625 -35.546875 C 40.628906 -32.140625 41.4375 -28.207031 41.4375 -23.75 Z M 31.9375 -23.78125 C 31.9375 -28.550781 31.082031 -32.175781 29.375 -34.65625 C 27.664062 -37.132812 25.226562 -38.375 22.0625 -38.375 C 18.914062 -38.375 16.488281 -37.148438 14.78125 -34.703125 C 13.070312 -32.253906 12.207031 -28.664062 12.1875 -23.9375 L 12.1875 -21.71875 C 12.1875 -17.070312 13.039062 -13.46875 14.75 -10.90625 C 16.457031 -8.34375 18.914062 -7.0625 22.125 -7.0625 C 25.269531 -7.0625 27.6875 -8.296875 29.375 -10.765625 C 31.0625 -13.234375 31.914062 -16.832031 31.9375 -21.5625 Z M 31.9375 -23.78125 "/>
      </g>
    </g>
    <g transform="translate(101.632831, 218.330494)">
      <g>
        <path d="M 20.90625 -16.65625 L 13.4375 -16.65625 L 13.4375 0 L 4.0625 0 L 4.0625 -45.5 L 20.96875 -45.5 L 20.96875 -37.90625 L 13.4375 -37.90625 L 13.4375 -26.15625 L 31.4375 -26.15625 Z M 13.4375 -24.25 L 21 -24.25 C 23.351562 -24.25 25.175781 -24.847656 26.46875 -26.046875 C 27.757812 -27.242188 28.40625 -28.894531 28.40625 -31 C 28.40625 -33.144531 27.796875 -34.832031 26.578125 -36.0625 C 25.359375 -37.289062 23.488281 -37.90625 20.96875 -37.90625 L 13.4375 -37.90625 Z M 13.4375 -24.25 "/>
      </g>
    </g>
    <g transform="translate(142.474091, 218.330494)">
      <g>
        <path d="M 38.3125 -37.90625 L 24.375 -37.90625 L 24.375 0 L 15 0 L 15 -37.90625 L 1.25 -37.90625 L 1.25 -45.5 L 38.3125 -45.5 Z M 38.3125 -37.90625 "/>
      </g>
    </g>
    <g transform="translate(182.065427, 218.330494)">
      <g>
        <path d="M 31.4375 -18.59375 L 13.4375 -18.59375 L 13.4375 0 L 4.0625 0 L 4.0625 -45.5 L 33.6875 -45.5 L 33.6875 -37.90625 L 13.4375 -37.90625 L 13.4375 -26.15625 L 31.4375 -26.15625 Z M 31.4375 -18.59375 "/>
      </g>
    </g>
    <g transform="translate(217.125796, 218.330494)">
      <g>
        <path d="M 41.4375 -21.71875 C 41.4375 -17.238281 40.644531 -13.3125 39.0625 -9.9375 C 37.476562 -6.5625 35.210938 -3.957031 32.265625 -2.125 C 29.316406 -0.289062 25.9375 0.625 22.125 0.625 C 18.351562 0.625 14.988281 -0.28125 12.03125 -2.09375 C 9.070312 -3.90625 6.78125 -6.492188 5.15625 -9.859375 C 3.53125 -13.222656 2.707031 -17.09375 2.6875 -21.46875 L 2.6875 -23.71875 C 2.6875 -28.195312 3.492188 -32.140625 5.109375 -35.546875 C 6.722656 -38.953125 9.003906 -41.566406 11.953125 -43.390625 C 14.898438 -45.210938 18.269531 -46.125 22.0625 -46.125 C 25.851562 -46.125 29.222656 -45.210938 32.171875 -43.390625 C 35.117188 -41.566406 37.398438 -38.953125 39.015625 -35.546875 C 40.628906 -32.140625 41.4375 -28.207031 41.4375 -23.75 Z M 31.9375 -23.78125 C 31.9375 -28.550781 31.082031 -32.175781 29.375 -34.65625 C 27.664062 -37.132812 25.226562 -38.375 22.0625 -38.375 C 18.914062 -38.375 16.488281 -37.148438 14.78125 -34.703125 C 13.070312 -32.253906 12.207031 -28.664062 12.1875 -23.9375 L 12.1875 -21.71875 C 12.1875 -17.070312 13.039062 -13.46875 14.75 -10.90625 C 16.457031 -8.34375 18.914062 -7.0625 22.125 -7.0625 C 25.269531 -7.0625 27.6875 -8.296875 29.375 -10.765625 C 31.0625 -13.234375 31.914062 -16.832031 31.9375 -21.5625 Z M 31.9375 -23.78125 "/>
      </g>
    </g>
  </g>
</svg>
